# xmcd
#
# Track frame offsets:
#	150
#	14181
#	29486
#	41065
#	56552
#	68940
#	82360
#	98985
#	111156
#	121752
#	135871
#
# Disc length: 1981 seconds
#
# Revision: 0
# Processed by: cddbd v1.5.2PL0 Copyright (c) Steve Scherf et al.
# Submitted via: EasyCDDAExtractor 16.0.6.1
#
DISCID=9c07bb0b
DTITLE=Νταλάρας Γιώργος - Νά 'τανε το '21-Σ. Κουγιουμτζής
DYEAR=1970
DGENRE=Έντεχνη λαϊκή
TTITLE0=Νά 'τανε το '21 [Σώτια Τσώτου]
TTITLE1=Μ' έκοψαν, με χώρισαν στα δυό [Γιώργος Θέμελης]
TTITLE2=Δώσε μου το χέρι σου (Παράπονο)[Σώτια Τσώτου]
TTITLE3=Αν δεις στον ύπνο σου ερημιά [Σταύρος Κουγιουμτζής]
TTITLE4=Έτσι είναι οι ανθρώποι [Σώτια Τσώτου]
TTITLE5=Πού 'ναι τα χρόνια [οργανικό, Ά. Δασκαλόπουλος]
TTITLE6=Κάπου νυχτώνει [Σταύρος Κουγιουμτζής]
TTITLE7=Δίχως την καρδούλα σου [Άκος Δασκαλόπουλος]
TTITLE8=Το σακάκι μου κι αν στάζει [Άκος Δασκαλόπουλος]
TTITLE9=Στο καπηλειό [Σώτια Τσώτου]
TTITLE10=Ο ουρανός φεύγει βαρύς [Σταύρος Κουγιουμτζής]
EXTD=
EXTT0=
EXTT1=
EXTT2=
EXTT3=
EXTT4=
EXTT5=
EXTT6=
EXTT7=
EXTT8=
EXTT9=
EXTT10=
PLAYORDER=
